<mxfile host="app.diagrams.net" modified="2023-12-30T00:34:26.221Z" agent="Mozilla/5.0 (Macintosh; Intel Mac OS X 10_15_7) AppleWebKit/537.36 (KHTML, like Gecko) Chrome/117.0.0.0 Safari/537.36" etag="PWMvyB9PNYSba2fxoQH1" version="22.1.16" type="github">
  <diagram name="Page-1" id="PwFkWNoYjDpuwNn8RhV-">
    <mxGraphModel dx="2074" dy="1182" grid="1" gridSize="10" guides="1" tooltips="1" connect="1" arrows="1" fold="1" page="1" pageScale="1" pageWidth="850" pageHeight="1100" math="0" shadow="0">
      <root>
        <mxCell id="0" />
        <mxCell id="1" parent="0" />
        <mxCell id="pv6V-A9NcBzSQIMy-4qV-2" style="edgeStyle=orthogonalEdgeStyle;rounded=0;orthogonalLoop=1;jettySize=auto;html=1;entryX=0;entryY=0.5;entryDx=0;entryDy=0;" edge="1" parent="1" source="pv6V-A9NcBzSQIMy-4qV-1" target="pv6V-A9NcBzSQIMy-4qV-3">
          <mxGeometry relative="1" as="geometry">
            <mxPoint x="530" y="430" as="targetPoint" />
          </mxGeometry>
        </mxCell>
        <mxCell id="pv6V-A9NcBzSQIMy-4qV-1" value="&lt;font style=&quot;font-size: 24px;&quot;&gt;Load&lt;/font&gt;" style="rounded=0;whiteSpace=wrap;html=1;fontSize=24;fontColor=#f20707;" vertex="1" parent="1">
          <mxGeometry x="330" y="400" width="120" height="60" as="geometry" />
        </mxCell>
        <mxCell id="pv6V-A9NcBzSQIMy-4qV-10" value="" style="edgeStyle=orthogonalEdgeStyle;rounded=0;orthogonalLoop=1;jettySize=auto;html=1;" edge="1" parent="1" source="pv6V-A9NcBzSQIMy-4qV-3" target="pv6V-A9NcBzSQIMy-4qV-9">
          <mxGeometry relative="1" as="geometry" />
        </mxCell>
        <mxCell id="pv6V-A9NcBzSQIMy-4qV-3" value="" style="rounded=1;whiteSpace=wrap;html=1;" vertex="1" parent="1">
          <mxGeometry x="620" y="360" width="480" height="140" as="geometry" />
        </mxCell>
        <mxCell id="pv6V-A9NcBzSQIMy-4qV-6" value="" style="edgeStyle=orthogonalEdgeStyle;rounded=0;orthogonalLoop=1;jettySize=auto;html=1;" edge="1" parent="1" source="pv6V-A9NcBzSQIMy-4qV-4" target="pv6V-A9NcBzSQIMy-4qV-5">
          <mxGeometry relative="1" as="geometry" />
        </mxCell>
        <mxCell id="pv6V-A9NcBzSQIMy-4qV-4" value="Verification" style="rounded=1;whiteSpace=wrap;html=1;" vertex="1" parent="1">
          <mxGeometry x="650" y="400" width="85" height="60" as="geometry" />
        </mxCell>
        <mxCell id="pv6V-A9NcBzSQIMy-4qV-8" value="" style="edgeStyle=orthogonalEdgeStyle;rounded=0;orthogonalLoop=1;jettySize=auto;html=1;" edge="1" parent="1" source="pv6V-A9NcBzSQIMy-4qV-5" target="pv6V-A9NcBzSQIMy-4qV-7">
          <mxGeometry relative="1" as="geometry" />
        </mxCell>
        <mxCell id="pv6V-A9NcBzSQIMy-4qV-5" value="Preparation" style="whiteSpace=wrap;html=1;rounded=1;" vertex="1" parent="1">
          <mxGeometry x="810" y="400" width="85" height="60" as="geometry" />
        </mxCell>
        <mxCell id="pv6V-A9NcBzSQIMy-4qV-7" value="resolution" style="whiteSpace=wrap;html=1;rounded=1;" vertex="1" parent="1">
          <mxGeometry x="975" y="400" width="85" height="60" as="geometry" />
        </mxCell>
        <mxCell id="pv6V-A9NcBzSQIMy-4qV-9" value="Initialization" style="whiteSpace=wrap;html=1;rounded=1;fontSize=24;fontColor=#ff0000;" vertex="1" parent="1">
          <mxGeometry x="1250" y="400" width="140" height="60" as="geometry" />
        </mxCell>
        <mxCell id="pv6V-A9NcBzSQIMy-4qV-11" value="Linking" style="text;html=1;align=center;verticalAlign=middle;resizable=0;points=[];autosize=1;strokeColor=none;fillColor=none;fontSize=24;fontColor=#f50000;" vertex="1" parent="1">
          <mxGeometry x="805" y="325" width="100" height="40" as="geometry" />
        </mxCell>
      </root>
    </mxGraphModel>
  </diagram>
</mxfile>
